<svg width="11" height="13" viewBox="0 0 11 13" fill="none" xmlns="http://www.w3.org/2000/svg">
<path fill-rule="evenodd" clip-rule="evenodd" d="M5.78038 0.224415C5.48751 -0.074773 5.01264 -0.0748099 4.71972 0.224333L3.22047 1.75546L3.15807 1.82763C2.92926 2.12817 2.95006 2.56275 3.22047 2.83892L4.71972 4.37004L4.79038 4.43376C5.08462 4.66741 5.51004 4.64613 5.78038 4.36996L5.84277 4.29778C6.07151 3.99725 6.05068 3.56271 5.7803 3.28658L5.57564 3.07751C7.49389 3.24604 9 4.88943 9 6.89059C9 9.0037 7.32065 10.7179 5.25 10.7179C3.17935 10.7179 1.5 9.0037 1.5 6.89059C1.5 5.87665 1.71849 5.30876 2.26654 4.65319C2.53551 4.33145 2.4982 3.8479 2.1832 3.57317C1.8682 3.29843 1.39479 3.33654 1.12582 3.65829C0.352726 4.58306 0 5.49983 0 6.89059C0 9.85009 2.35115 12.25 5.25 12.25C8.14885 12.25 10.5 9.85009 10.5 6.89059C10.5 4.03485 8.31084 1.70013 5.55282 1.53992L5.7803 1.30779L5.8427 1.23563C6.07149 0.935125 6.05072 0.500589 5.78038 0.224415ZM3.75 5.97188C3.75 5.6336 4.02422 5.35938 4.3625 5.35938H6.1375C6.47577 5.35938 6.75 5.6336 6.75 5.97188C6.75 6.31015 6.47577 6.58437 6.1375 6.58437H4.3625C4.02422 6.58437 3.75 6.31015 3.75 5.97188ZM4.3625 7.27344C4.02422 7.27344 3.75 7.54766 3.75 7.88594C3.75 8.22421 4.02422 8.49844 4.3625 8.49844H6.1375C6.47577 8.49844 6.75 8.22421 6.75 7.88594C6.75 7.54766 6.47577 7.27344 6.1375 7.27344H4.3625Z" fill="#11A6DA"/>
</svg>
