<svg width="17" height="15" viewBox="0 0 17 15" fill="none" xmlns="http://www.w3.org/2000/svg">
<path fill-rule="evenodd" clip-rule="evenodd" d="M7.30892 13.4289V0.669765C7.33341 0.306271 7.65761 0.0299728 8.0348 0.0511256C8.41199 0.0299728 8.73618 0.306271 8.76068 0.669765V13.4289C8.73656 13.7927 8.41238 14.0696 8.0348 14.0489C7.65722 14.0696 7.33304 13.7927 7.30892 13.4289ZM11.6642 13.3484C11.2633 13.3484 10.9383 13.035 10.9383 12.6486H10.2125V11.3014H13.9689V7.8163L13.9384 7.74632H10.2125V6.34668H13.3033L12.0068 3.49632H10.2125V2.15057H12.0751C12.5564 2.15566 12.989 2.43465 13.1777 2.86159L14.7608 6.34948H15.3241C15.725 6.34948 16.05 6.6628 16.05 7.0493C16.05 7.4358 15.725 7.74912 15.3241 7.74912H15.2936V11.9753C15.3026 12.3372 15.0062 12.6379 14.6309 12.6479H14.5678C14.5678 13.0343 14.2428 13.3477 13.8419 13.3477L11.6642 13.3484ZM1.50189 12.6485C1.50189 13.035 1.82688 13.3484 2.22777 13.3484L4.40541 13.3463C4.8063 13.3463 5.13129 13.0329 5.13129 12.6464H5.85717V11.3014H2.10001V7.81909L2.12978 7.7491H5.85717V6.34947H2.76492L4.05989 3.49631H5.85717V2.15056H3.99239C3.51075 2.15519 3.07765 2.43429 2.88905 2.86157L1.3059 6.34947H0.746247C0.353796 6.35788 0.0424277 6.67091 0.0501276 7.04929C0.0428292 7.42752 0.35397 7.74031 0.746247 7.7491H0.776008V11.9753C0.766654 12.3369 1.06223 12.6379 1.43729 12.6485H1.50189Z" fill="#6F7383"/>
<path d="M7.30892 0.669765L7.25892 0.666395V0.669765H7.30892ZM7.30892 13.4289H7.25881L7.25903 13.4322L7.30892 13.4289ZM8.0348 0.0511256L8.03198 0.101362L8.0376 0.101047L8.0348 0.0511256ZM8.76068 0.669765H8.81079L8.81056 0.666403L8.76068 0.669765ZM8.76068 13.4289L8.81068 13.4322V13.4289H8.76068ZM8.0348 14.0489L8.03756 13.9987L8.03205 13.999L8.0348 14.0489ZM10.9383 12.6486H10.9883V12.5985H10.9383V12.6486ZM11.6642 13.3484V13.3984H11.6642L11.6642 13.3484ZM10.2125 12.6486H10.1625V12.6986H10.2125V12.6486ZM10.2125 11.3014V11.2514H10.1625V11.3014H10.2125ZM13.9689 11.3014V11.3514H14.0189V11.3014H13.9689ZM13.9689 7.8163H14.0189V7.80589L14.0147 7.79633L13.9689 7.8163ZM13.9384 7.74632L13.9843 7.72635L13.9712 7.69632H13.9384V7.74632ZM10.2125 7.74632H10.1625V7.79632H10.2125V7.74632ZM10.2125 6.34668V6.29668H10.1625V6.34668H10.2125ZM13.3033 6.34668V6.39669H13.3809L13.3488 6.32598L13.3033 6.34668ZM12.0068 3.49632L12.0524 3.47562L12.039 3.44632H12.0068V3.49632ZM10.2125 3.49632H10.1625V3.54632H10.2125V3.49632ZM10.2125 2.15057V2.10057H10.1625V2.15057H10.2125ZM12.0751 2.15057L12.0756 2.10057H12.0751V2.15057ZM13.1777 2.86159L13.132 2.8818L13.1322 2.88225L13.1777 2.86159ZM14.7608 6.34948L14.7153 6.37015L14.7286 6.39948H14.7608V6.34948ZM15.2936 7.74912V7.69912H15.2436V7.74912H15.2936ZM15.2936 11.9753H15.2436L15.2436 11.9766L15.2936 11.9753ZM14.6309 12.6479V12.6979L14.6322 12.6978L14.6309 12.6479ZM14.5678 12.6479V12.5978H14.5178V12.6479H14.5678ZM13.8419 13.3477V13.2977H13.8419L13.8419 13.3477ZM2.22777 13.3484V13.3984H2.22782L2.22777 13.3484ZM1.50189 12.6485H1.55189V12.5985H1.50189V12.6485ZM4.40541 13.3463V13.2963H4.40536L4.40541 13.3463ZM5.13129 12.6464V12.5964H5.08129V12.6464H5.13129ZM5.85717 12.6464V12.6964H5.90717V12.6464H5.85717ZM5.85717 11.3014H5.90717V11.2514H5.85717V11.3014ZM2.10001 11.3014H2.05001V11.3514H2.10001V11.3014ZM2.10001 7.81909L2.054 7.79952L2.05001 7.8089V7.81909H2.10001ZM2.12978 7.7491V7.6991H2.09671L2.08376 7.72954L2.12978 7.7491ZM5.85717 7.7491V7.79911H5.90717V7.7491H5.85717ZM5.85717 6.34947H5.90717V6.29947H5.85717V6.34947ZM2.76492 6.34947L2.71939 6.3288L2.68732 6.39947H2.76492V6.34947ZM4.05989 3.49631V3.44631H4.02768L4.01436 3.47564L4.05989 3.49631ZM5.85717 3.49631V3.54631H5.90717V3.49631H5.85717ZM5.85717 2.15056H5.90717V2.10056H5.85717V2.15056ZM3.99239 2.15056V2.10056L3.9919 2.10056L3.99239 2.15056ZM2.88905 2.86157L2.93458 2.88224L2.93479 2.88176L2.88905 2.86157ZM1.3059 6.34947V6.39947H1.33812L1.35143 6.37013L1.3059 6.34947ZM0.746247 6.34947V6.29946L0.745175 6.29948L0.746247 6.34947ZM0.0501276 7.04929L0.100158 7.05025L0.100117 7.04827L0.0501276 7.04929ZM0.746247 7.7491L0.745126 7.79911H0.746247V7.7491ZM0.776008 7.7491H0.826008V7.6991H0.776008V7.7491ZM0.776008 11.9753L0.826008 11.9766V11.9753H0.776008ZM1.43729 12.6485L1.43586 12.6985H1.43729V12.6485ZM7.25892 0.669765V13.4289H7.35892V0.669765H7.25892ZM8.0376 0.00120405C7.63475 -0.0213876 7.28548 0.273914 7.25903 0.666403L7.3588 0.673127C7.38135 0.338628 7.68047 0.0813333 8.032 0.101047L8.0376 0.00120405ZM8.81056 0.666403C8.78411 0.273914 8.43484 -0.0213876 8.032 0.00120405L8.0376 0.101047C8.38913 0.0813333 8.68825 0.338628 8.71079 0.673127L8.81056 0.666403ZM8.81068 13.4289V0.669765H8.71068V13.4289H8.81068ZM8.03205 14.0988C8.43529 14.121 8.78452 13.825 8.81057 13.4322L8.71079 13.4255C8.68859 13.7604 8.38946 14.0183 8.03754 13.999L8.03205 14.0988ZM7.25903 13.4322C7.28507 13.825 7.6343 14.121 8.03754 14.0988L8.03205 13.999C7.68013 14.0183 7.38101 13.7604 7.35881 13.4255L7.25903 13.4322ZM10.8883 12.6486C10.8883 13.0644 11.2375 13.3984 11.6642 13.3984V13.2984C11.2892 13.2984 10.9883 13.0057 10.9883 12.6486H10.8883ZM10.2125 12.6986H10.9383V12.5985H10.2125V12.6986ZM10.1625 11.3014V12.6486H10.2625V11.3014H10.1625ZM13.9689 11.2514H10.2125V11.3514H13.9689V11.2514ZM13.9189 7.8163V11.3014H14.0189V7.8163H13.9189ZM13.8926 7.76629L13.9231 7.83627L14.0147 7.79633L13.9843 7.72635L13.8926 7.76629ZM10.2125 7.79632H13.9384V7.69632H10.2125V7.79632ZM10.1625 6.34668V7.74632H10.2625V6.34668H10.1625ZM13.3033 6.29668H10.2125V6.39669H13.3033V6.29668ZM11.9613 3.51703L13.2578 6.36739L13.3488 6.32598L12.0524 3.47562L11.9613 3.51703ZM10.2125 3.54632H12.0068V3.44632H10.2125V3.54632ZM10.1625 2.15057V3.49632H10.2625V2.15057H10.1625ZM12.0751 2.10057H10.2125V2.20057H12.0751V2.10057ZM13.2234 2.84138C13.0265 2.3958 12.5757 2.10586 12.0756 2.10058L12.0746 2.20057C12.537 2.20546 12.9515 2.47351 13.132 2.8818L13.2234 2.84138ZM14.8064 6.32882L13.2232 2.84092L13.1322 2.88225L14.7153 6.37015L14.8064 6.32882ZM15.3241 6.29948H14.7608V6.39948H15.3241V6.29948ZM16.1 7.0493C16.1 6.63348 15.7509 6.29948 15.3241 6.29948V6.39948C15.6991 6.39948 16 6.69213 16 7.0493H16.1ZM15.3241 7.79912C15.7509 7.79912 16.1 7.46512 16.1 7.0493H16C16 7.40648 15.6991 7.69912 15.3241 7.69912V7.79912ZM15.2936 7.79912H15.3241V7.69912H15.2936V7.79912ZM15.3436 11.9753V7.74912H15.2436V11.9753H15.3436ZM14.6322 12.6978C15.0334 12.6872 15.3533 12.3653 15.3436 11.9741L15.2436 11.9766C15.2519 12.3092 14.9791 12.5886 14.6296 12.5979L14.6322 12.6978ZM14.5678 12.6979H14.6309V12.5978H14.5678V12.6979ZM13.8419 13.3977C14.2686 13.3977 14.6178 13.0637 14.6178 12.6479H14.5178C14.5178 13.005 14.2169 13.2977 13.8419 13.2977V13.3977ZM11.6642 13.3984L13.8419 13.3977L13.8419 13.2977L11.6642 13.2984L11.6642 13.3984ZM2.22777 13.2984C1.85275 13.2984 1.55189 13.0057 1.55189 12.6485H1.45189C1.45189 13.0644 1.801 13.3984 2.22777 13.3984V13.2984ZM4.40536 13.2963L2.22772 13.2984L2.22782 13.3984L4.40546 13.3963L4.40536 13.2963ZM5.08129 12.6464C5.08129 13.0036 4.78043 13.2963 4.40541 13.2963V13.3963C4.83218 13.3963 5.18129 13.0623 5.18129 12.6464H5.08129ZM5.85717 12.5964H5.13129V12.6964H5.85717V12.5964ZM5.80717 11.3014V12.6464H5.90717V11.3014H5.80717ZM2.10001 11.3514H5.85717V11.2514H2.10001V11.3514ZM2.05001 7.81909V11.3014H2.15001V7.81909H2.05001ZM2.08376 7.72954L2.054 7.79952L2.14603 7.83865L2.17579 7.76867L2.08376 7.72954ZM5.85717 7.6991H2.12978V7.79911H5.85717V7.6991ZM5.80717 6.34947V7.7491H5.90717V6.34947H5.80717ZM2.76492 6.39947H5.85717V6.29947H2.76492V6.39947ZM4.01436 3.47564L2.71939 6.3288L2.81045 6.37013L4.10542 3.51697L4.01436 3.47564ZM5.85717 3.44631H4.05989V3.54631H5.85717V3.44631ZM5.80717 2.15056V3.49631H5.90717V2.15056H5.80717ZM3.99239 2.20056H5.85717V2.10056H3.99239V2.20056ZM2.93479 2.88176C3.11515 2.47315 3.53007 2.205 3.99287 2.20056L3.9919 2.10056C3.49143 2.10537 3.04015 2.39542 2.8433 2.84138L2.93479 2.88176ZM1.35143 6.37013L2.93458 2.88224L2.84352 2.84091L1.26037 6.3288L1.35143 6.37013ZM0.746247 6.39947H1.3059V6.29947H0.746247V6.39947ZM0.100117 7.04827C0.0930134 6.69918 0.380721 6.40732 0.747319 6.39946L0.745175 6.29948C0.326872 6.30845 -0.00815801 6.64263 0.000137925 7.0503L0.100117 7.04827ZM0.747368 7.69912C0.380908 7.6909 0.0933842 7.39923 0.100118 7.05025L0.000136882 7.04832C-0.00772587 7.4558 0.327032 7.78972 0.745126 7.79909L0.747368 7.69912ZM0.776008 7.6991H0.746247V7.79911H0.776008V7.6991ZM0.826008 11.9753V7.7491H0.726008V11.9753H0.826008ZM1.43871 12.5986C1.08948 12.5886 0.817394 12.309 0.825992 11.9766L0.726025 11.974C0.715914 12.3649 1.03498 12.6871 1.43586 12.6985L1.43871 12.5986ZM1.50189 12.5985H1.43729V12.6985H1.50189V12.5985Z" fill="#6F7383"/>
</svg>
