<svg width="11" height="11" viewBox="0 0 11 11" fill="none" xmlns="http://www.w3.org/2000/svg">
<path fill-rule="evenodd" clip-rule="evenodd" d="M5.72883 10.1507C5.77685 10.35 5.813 10.5 6.24033 10.5L7.98523 10.4965C8.4108 10.4965 8.43121 10.2009 8.45767 9.81745C8.45974 9.78742 8.46185 9.75686 8.4642 9.72585L8.74513 6.25661L10.497 2.51008C10.3215 2.35401 10.0891 2.27833 9.85565 2.30124C9.62219 2.32415 9.40882 2.44358 9.26685 2.6308L8.3944 4.2412L8.33508 4.21146L8.66748 0.600513C8.66748 0.600513 7.61007 -0.0450483 7.43558 1.49188L7.2672 3.11628L7.25807 3.0818L7.25807 3.08179C6.62762 0.700793 6.61852 0.666422 6.16094 0.00131318C6.16094 0.00131318 5.28501 -0.0782886 5.44205 1.00202L5.96551 3.17839L6.05712 3.24049L5.94632 3.19326L3.78091 3.35421L2.73397 4.90251C2.73397 4.90251 3.83064 5.43523 4.2468 4.40565C4.58355 4.64417 5.01663 4.69894 5.40191 4.55174L5.7919 5.5192L5.12535 6.34059L4.21015 6.07817C4.21015 6.07817 3.99902 4.93837 2.71565 5.39499L3.31415 6.89955L4.2974 7.78304C4.53202 8.51715 4.98956 9.15939 5.60607 9.62001C5.60607 9.62001 5.66016 9.87893 5.71687 10.102C5.72107 10.1185 5.72499 10.1348 5.72883 10.1507ZM0.586449 6.74621C0.577913 6.79102 0.589175 6.83733 0.61732 6.87317V6.87229C0.655303 6.92067 0.713841 6.94824 0.775232 6.94664C0.812833 6.9457 0.849412 6.93418 0.880798 6.9134L2.17551 6.06665C2.2148 6.04364 2.24213 6.00459 2.25034 5.95971C2.25856 5.91483 2.24684 5.8686 2.21826 5.83309C2.15453 5.75382 2.04102 5.73637 1.95652 5.79286L0.661814 6.63961C0.622478 6.66252 0.594984 6.70141 0.586449 6.74621ZM0.216908 5.16843C0.146425 5.18614 0.0723719 5.1582 0.0310165 5.0983C-0.0103388 5.03839 -0.0103388 4.95906 0.0310165 4.89916C0.0723719 4.83925 0.146425 4.81132 0.216908 4.82903H1.60061C1.67109 4.81132 1.74514 4.83925 1.7865 4.89916C1.82785 4.95906 1.82785 5.03839 1.7865 5.0983C1.74514 5.1582 1.67109 5.18614 1.60061 5.16843H0.216908ZM0.661853 3.44608L1.95656 4.29371V4.28933C1.98949 4.30872 2.02661 4.31983 2.06475 4.3217C2.12307 4.32242 2.1787 4.2971 2.21655 4.25259C2.24496 4.2164 2.25654 4.16974 2.24836 4.12442C2.24019 4.07911 2.21305 4.03947 2.1738 4.01554L0.879092 3.16879C0.794413 3.11315 0.681521 3.13051 0.617358 3.20902C0.589107 3.24544 0.577801 3.29227 0.586312 3.33761C0.594822 3.38295 0.62233 3.42245 0.661853 3.44608Z" fill="#1BBA6B"/>
</svg>
