<svg width="35" height="33" viewBox="0 0 35 33" fill="none" xmlns="http://www.w3.org/2000/svg">
<g filter="url(#filter0_d_13012_1339)">
<path d="M22.612 6C23.7767 6 24.867 6.45801 25.6952 7.29517C26.515 8.1238 26.9762 9.22237 26.9988 10.4L27 10.4905C27 10.8343 26.9617 11.1778 26.8864 11.5106C26.6372 12.6562 25.9894 13.9371 24.9388 15.3129C24.0752 16.4439 22.9457 17.6331 21.5828 18.8415C20.5579 19.7503 19.4908 20.5937 18.4444 21.3495L17.5158 22L16.8515 21.5405C16.766 21.4799 16.6774 21.4167 16.586 21.351C15.5384 20.5969 14.4698 19.7553 13.443 18.8484C12.0777 17.6426 10.9452 16.4555 10.0783 15.3264C9.02358 13.9529 8.37144 12.6738 8.12094 11.5434C8.03966 11.1913 8 10.8423 8 10.4924L8.00108 10.4108C8.02419 9.22369 8.48554 8.12522 9.30517 7.2969C10.1333 6.45997 11.2234 6.0021 12.3879 6.0021C13.3461 6.0021 14.2489 6.30882 15.0127 6.89343C15.4726 7.24535 15.8539 7.67518 16.144 8.16614L17.5 10.4611L18.8551 8.16557C19.1451 7.6743 19.5265 7.24413 19.9866 6.89195C20.7506 6.30692 21.6536 6 22.612 6Z" fill="#272A37" fill-opacity="0.75" shape-rendering="crispEdges"/>
<path d="M28 10.4902C28 10.9046 27.9527 11.3189 27.8623 11.7217L27.8633 11.7227C27.5726 13.0589 26.838 14.4735 25.7334 15.9199C24.822 17.1134 23.6451 18.3494 22.2461 19.5898C21.1938 20.5228 20.1007 21.3871 19.0303 22.1602L19.0244 22.1641L19.0186 22.1689L18.0898 22.8193L17.5195 23.2188L16.9473 22.8223L16.2822 22.3633L16.2734 22.3564C16.1859 22.2944 16.0953 22.2293 16.002 22.1621C14.9303 21.3908 13.8354 20.5287 12.7812 19.5977C11.3798 18.3599 10.1998 17.1268 9.28516 15.9355C8.17723 14.4927 7.43729 13.0809 7.14453 11.7598L7.14551 11.7588C7.04886 11.3371 7 10.9157 7 10.4922V10.4795L7.00098 10.3975V10.3916C7.029 8.95208 7.59163 7.60748 8.59473 6.59375C9.60828 5.56946 10.953 5.00201 12.3877 5.00195C13.5666 5.00195 14.6827 5.38219 15.6201 6.09961C16.1809 6.52883 16.649 7.05491 17.0049 7.65723L17.499 8.49414L17.9941 7.65723C18.35 7.05444 18.8178 6.52722 19.3789 6.09766C20.3165 5.37987 21.4331 5 22.6123 5C24.0473 5.00007 25.3926 5.56718 26.4062 6.5918C27.346 7.54167 27.8991 8.78266 27.9873 10.1133L27.999 10.3809V10.3867L28 10.4775V10.4902Z" stroke="white" stroke-width="2" shape-rendering="crispEdges"/>
</g>
<defs>
<filter id="filter0_d_13012_1339" x="0" y="0" width="35" height="32.4368" filterUnits="userSpaceOnUse" color-interpolation-filters="sRGB">
<feFlood flood-opacity="0" result="BackgroundImageFix"/>
<feColorMatrix in="SourceAlpha" type="matrix" values="0 0 0 0 0 0 0 0 0 0 0 0 0 0 0 0 0 0 127 0" result="hardAlpha"/>
<feOffset dy="2"/>
<feGaussianBlur stdDeviation="3"/>
<feComposite in2="hardAlpha" operator="out"/>
<feColorMatrix type="matrix" values="0 0 0 0 0.152941 0 0 0 0 0.164706 0 0 0 0 0.215686 0 0 0 0.5 0"/>
<feBlend mode="normal" in2="BackgroundImageFix" result="effect1_dropShadow_13012_1339"/>
<feBlend mode="normal" in="SourceGraphic" in2="effect1_dropShadow_13012_1339" result="shape"/>
</filter>
</defs>
</svg>
