<svg width="12" height="12" viewBox="0 0 12 12" fill="none" xmlns="http://www.w3.org/2000/svg">
<path d="M3.97223 12H1.13847C0.83666 11.9996 0.547331 11.8795 0.333919 11.6661C0.120506 11.4527 0.000423934 11.1633 4.19314e-08 10.8615V8.22326C-4.05478e-05 8.07433 0.0293874 7.92687 0.0865886 7.78937C0.14379 7.65186 0.227633 7.52704 0.333289 7.42208L7.41809 0.33328C7.63171 0.119873 7.92131 0 8.22327 0C8.52522 0 8.81483 0.119873 9.02845 0.33328L11.6659 2.97155C11.8793 3.18517 11.9992 3.47478 11.9992 3.77673C11.9992 4.07869 11.8793 4.36829 11.6659 4.58191L5.58179 10.6668H11.0562C11.233 10.6668 11.4026 10.7371 11.5276 10.8621C11.6526 10.9871 11.7228 11.1566 11.7228 11.3334C11.7228 11.5102 11.6526 11.6798 11.5276 11.8048C11.4026 11.9298 11.233 12 11.0562 12H3.97223ZM1.33316 10.6668H2.36267L1.33316 9.63733V10.6668ZM3.97303 10.3912L8.72961 5.63466L6.36614 3.27119L1.60956 8.02777L3.97303 10.3912ZM9.67179 4.69248L10.5875 3.77673L8.22407 1.41326L7.30752 2.32901L9.67179 4.69248Z" fill="#6F7383"/>
</svg>
